# xmcd CD database file
#
# Track frame offsets:
#	151
#	14638
#	27032
#	40239
#	52712
#	67067
#	80263
#	92292
#	105164
#	118382
#	130384
#	143584
#	158164
#	170780
#	184869
#	198462
#	213062
#	225984
#	238604
#	253524
#
# Disc length: 3571 seconds
#
# Revision: 0
# Processed by: cddbd v1.5.2PL0 Copyright (c) Steve Scherf et al.
# Submitted via: CDex 1.70beta2
#
DISCID=020df114
DTITLE=Charangas de siempre CD3 - Orquesta Fajardo y sus estrellas
DYEAR=2006
DGENRE=Salsa
TTITLE0=Te pone a gozar - DR 1956
TTITLE1=Los tamalitos de Olga - José A Fajardo 1962
TTITLE2=El aguardiente - José A Fajardo 1960
TTITLE3=Callate corazon - A Fernández 1960
TTITLE4=A mi que - Jesús Guerra 1959
TTITLE5=Ay que frio - José A Fajardo 1960
TTITLE6=Pa' bailar - Félix Reina 1960
TTITLE7=Bonito y sabroso - Benny Moré 1960
TTITLE8=La cantina - Richard Egues 1959
TTITLE9=Ay cosita linda - Pacho Galán 1958
TTITLE10=El trago - Richard Egües 1959
TTITLE11=Sabrosona - Rafael lay y Richard Egües 1956
TTITLE12=Los Panchos de Atares - DR 1956
TTITLE13=Dorotea - D 1956
TTITLE14=Cha cha cha de los parqueadores - DR 1956
TTITLE15=Lo sabe ya - DR 1956
TTITLE16=La charanga - José A Fajardo 1960
TTITLE17=Sayonara - Jose A Fajardo 1960
TTITLE18=Vamos a gozar - José A Fajardo 1962
TTITLE19=Ritmo de charanga - DR 1962
EXTD=YEAR: 2006
EXTT0=
EXTT1=
EXTT2=
EXTT3=
EXTT4=
EXTT5=
EXTT6=
EXTT7=
EXTT8=
EXTT9=
EXTT10=
EXTT11=
EXTT12=
EXTT13=
EXTT14=
EXTT15=
EXTT16=
EXTT17=
EXTT18=
EXTT19=
PLAYORDER=
